HIERARCHY
ROOT Hips
{
  OFFSET 50.3411 100.635 9.13997
  CHANNELS 6 Xposition Yposition Zposition Zrotation Xrotation Yrotation
  JOINT spine
  {
    OFFSET 0 8.81704 0.507024
    CHANNELS 3 Zrotation Xrotation Yrotation
    JOINT spine1
    {
      OFFSET 0 10.7766 0
      CHANNELS 3 Zrotation Xrotation Yrotation
      JOINT spine2
      {
        OFFSET 0 10.3259 0
        CHANNELS 3 Zrotation Xrotation Yrotation
        JOINT Neck
        {
          OFFSET 0 26.511 1.26395
          CHANNELS 3 Zrotation Xrotation Yrotation
          JOINT Head
          {
            OFFSET 0 8.00966 0
            CHANNELS 3 Zrotation Xrotation Yrotation
            End Site
            {
              OFFSET 0 19.3879 -6.39386
            }
          }
        }
        JOINT RightShoulder
        {
          OFFSET -4.34795 11.1512 -0.605422
          CHANNELS 3 Zrotation Xrotation Yrotation
          JOINT RightArm
          {
            OFFSET 0 14.6258 0
            CHANNELS 3 Zrotation Xrotation Yrotation
            JOINT RightArmRoll
            {
              OFFSET 0 7.3834 0
              CHANNELS 3 Zrotation Xrotation Yrotation
              JOINT RightForeArm
              {
                OFFSET 0 21.5052 0
                CHANNELS 3 Zrotation Xrotation Yrotation
                JOINT RightForeArmRoll
                {
                  OFFSET 0 8.28532 0
                  CHANNELS 3 Zrotation Xrotation Yrotation
                  JOINT RightHand
                  {
                    OFFSET 0 16.6268 0
                    CHANNELS 3 Zrotation Xrotation Yrotation
                    End Site
                    {
                      OFFSET 0 0 0
                    }
                  }
                }
              }
            }
          }
        }
        JOINT LeftShoulder
        {
          OFFSET 4.34795 11.1512 -0.605422
          CHANNELS 3 Zrotation Xrotation Yrotation
          JOINT LeftArm
          {
            OFFSET 0 14.6258 0
            CHANNELS 3 Zrotation Xrotation Yrotation
            JOINT LeftArmRoll
            {
              OFFSET 0 7.3834 0
              CHANNELS 3 Zrotation Xrotation Yrotation
              JOINT LeftForeArm
              {
                OFFSET 0 21.5052 0
                CHANNELS 3 Zrotation Xrotation Yrotation
                JOINT LeftForeArmRoll
                {
                  OFFSET 0 8.28532 0
                  CHANNELS 3 Zrotation Xrotation Yrotation
                  JOINT LeftHand
                  {
                    OFFSET 0 16.6268 0
                    CHANNELS 3 Zrotation Xrotation Yrotation
                    End Site
                    {
                      OFFSET 0 0 0
                    }
                  }
                }
              }
            }
          }
        }
      }
    }
  }
  JOINT RightUpLeg
  {
    OFFSET -7.8151 -1.43309 -1.20217
    CHANNELS 3 Zrotation Xrotation Yrotation
    JOINT RightUpLegRoll
    {
      OFFSET 0 19.4959 0
      CHANNELS 3 Zrotation Xrotation Yrotation
      JOINT RightLeg
      {
        OFFSET 0 -24.1427 0
        CHANNELS 3 Zrotation Xrotation Yrotation
        JOINT RightLegRoll
        {
          OFFSET 0 24.2217 0
          CHANNELS 3 Zrotation Xrotation Yrotation
          JOINT RightFoot
          {
            OFFSET 0 20.1605 0
            CHANNELS 3 Zrotation Xrotation Yrotation
            JOINT RightToeBase
            {
              OFFSET 0 16.8532 0
              CHANNELS 3 Zrotation Xrotation Yrotation
              End Site
              {
                OFFSET 0.00714342 8.16186 -0.940781
              }
            }
          }
        }
      }
    }
  }
  JOINT LeftUpLeg
  {
    OFFSET 7.8151 -1.43309 -1.20217
    CHANNELS 3 Zrotation Xrotation Yrotation
    JOINT LeftUpLegRoll
    {
      OFFSET 0 19.496 0
      CHANNELS 3 Zrotation Xrotation Yrotation
      JOINT LeftLeg
      {
        OFFSET 0 24.1426 0
        CHANNELS 3 Zrotation Xrotation Yrotation
        JOINT LeftLegRoll
        {
          OFFSET 0 24.4456 0
          CHANNELS 3 Zrotation Xrotation Yrotation
          JOINT LeftFoot
          {
            OFFSET 0 19.9366 0
            CHANNELS 3 Zrotation Xrotation Yrotation
            JOINT LeftToeBase
            {
              OFFSET 0 16.8532 0
              CHANNELS 3 Zrotation Xrotation Yrotation
              End Site
              {
                OFFSET -0.0320138 8.16187 -0.94078
              }
            }
          }
        }
      }
    }
  }
}
MOTION
Frames: 8
Frame Time: 0.00208333
49.267 100.316 7.03143 0.145277 2.49869 7.90911 -0.114342 -1.9174 0.320531 -0.220807 0.167408 0.652045 -0.228705 1.81242 0.655939 -29.0139 17.093 2.49629 22.752 2.1509 -3.61912 29.8197 2.52564 6.87962 118.98 55.7206 -22.8593 -3.18055e-015 3.18055e-015 -3.18055e-015 11.287 58.5113 -7.67933 -7.09662e-006 5.19571e-006 -3 8.02898 -4.95144 0.697692 -66.7429 -14.5187 8.67711 -88.6943 28.2142 45.7533 1.03368e-014 -4.77083e-015 3.18055e-015 139.193 70.6922 -117.857 4.61978e-006 1.88776e-006 3.00062 -8.02893 -4.95144 -0.697707 179.477 6.77353 -1.48397 180 7.01572e-015 179.039 178.495 8.92599 179.608 -3.63578e-006 -3.53707e-006 0.0645931 -18.6807 67.4612 19.0941 8.16835 25.8181 -3.50336 -175.436 11.0056 0.445161 4.54188e-006 -4.6773e-006 -0.98386 -3.46552 -14.5494 0.0621076 5.39004e-007 -2.5754e-006 -0.20011 19.3588 68.8597 -20.2739 -8.13713 25.2326 3.48801 
49.2885 100.322 7.04939 0.151989 2.50393 7.63167 -0.107926 -1.94602 0.308867 -0.208123 0.110216 0.628041 -0.215725 1.75523 0.631707 -28.5544 17.142 2.5807 22.2594 2.06322 -3.43763 30.2344 2.51225 6.7717 119.225 55.2966 -23.5706 -3.18055e-015 0 -3.97569e-015 11.3425 59.0909 -7.78057 -7.09662e-006 5.19571e-006 -3 8.02898 -4.95144 0.697692 -66.5386 -14.5004 8.6764 -88.7313 28.3657 45.4317 1.59028e-015 1.59028e-015 9.54166e-015 139.226 70.8257 -118.065 4.61978e-006 1.88776e-006 3.00062 -8.02893 -4.95144 -0.697707 179.462 6.83146 -1.48418 180 7.01572e-015 179.04 178.507 8.97814 179.604 -3.63578e-006 -3.53707e-006 0.0631665 -18.6372 67.4449 19.0814 8.16961 25.8364 -3.50382 -175.443 10.9306 0.428519 4.54188e-006 -4.6773e-006 -0.984951 -3.49392 -14.5332 0.0580824 5.39004e-007 -2.5754e-006 -0.200157 19.3769 68.8801 -20.2926 -8.13715 25.2326 3.48802 
49.3221 100.314 7.01451 0.159633 2.50772 7.35124 -0.101813 -1.97405 0.2977 -0.19605 0.0542124 0.605067 -0.203369 1.69924 0.608518 -28.0834 17.197 2.6617 21.7593 1.97473 -3.25881 30.6549 2.49605 6.66147 119.445 54.8674 -24.2731 3.18055e-015 0 -1.27222e-014 11.3804 59.6685 -7.8697 -7.09662e-006 5.19571e-006 -3 8.02898 -4.95144 0.697692 -66.3337 -14.4786 8.67368 -88.7636 28.5199 45.1016 -5.56597e-015 1.59028e-015 -0 139.253 70.9634 -118.27 4.61978e-006 1.88776e-006 3.00061 -8.02893 -4.95144 -0.697707 179.446 6.88564 -1.48238 180 7.01573e-015 179.041 178.517 9.02385 179.601 -3.63578e-006 -3.53707e-006 0.061697 -18.5929 67.4255 19.0662 8.17082 25.8538 -3.50423 -175.452 10.8516 0.413871 4.54188e-006 -4.6773e-006 -0.98607 -3.52146 -14.5136 0.0541212 5.39004e-007 -2.5754e-006 -0.200182 19.3951 68.9007 -20.3113 -8.13717 25.2326 3.48802 
49.3692 100.314 7.0398 0.168323 2.50964 7.06775 -0.0960556 -2.00139 0.287099 -0.184688 -0.000415602 0.583267 -0.191739 1.64461 0.586515 -27.6005 17.2586 2.7389 21.2516 1.88577 -3.08306 31.0817 2.47713 6.54915 119.638 54.4331 -24.9664 6.36111e-015 -6.36111e-015 -1.11319e-014 11.3987 60.244 -7.94486 -7.09662e-006 5.19571e-006 -3 8.02898 -4.95144 0.697692 -66.1282 -14.4531 8.66871 -88.7905 28.6771 44.7627 5.56597e-015 -7.95139e-015 9.54166e-015 139.273 71.1054 -118.47 4.61978e-006 1.88776e-006 3.0006 -8.02893 -4.95144 -0.697707 179.428 6.93536 -1.4782 180 7.01573e-015 179.042 178.525 9.0623 179.598 -3.63578e-006 -3.53707e-006 0.0601882 -18.5477 67.4025 19.0483 8.17196 25.8702 -3.50457 -175.463 10.7678 0.401421 4.54188e-006 -4.6773e-006 -0.987227 -3.54805 -14.4906 0.0502313 5.39004e-007 -2.5754e-006 -0.200183 19.4134 68.9215 -20.3302 -8.13719 25.2326 3.48803 
49.3982 100.322 7.06859 0.178583 2.50976 6.78008 -0.090686 -2.02809 0.277146 -0.174099 -0.0537728 0.562808 -0.180898 1.59126 0.565867 -27.1078 17.3242 2.81416 20.7373 1.79819 -2.90903 31.5131 2.45533 6.4339 119.809 53.9932 -25.65 0 0 -6.36111e-015 11.4041 60.8168 -8.01199 -7.09662e-006 5.19571e-006 -3 8.02898 -4.95144 0.697692 -65.9228 -14.4253 8.6625 -88.8128 28.8364 44.4181 -3.18055e-015 6.36111e-015 3.18055e-015 139.289 71.251 -118.67 4.61978e-006 1.88776e-006 3.00059 -8.02893 -4.95144 -0.697707 179.408 6.9814 -1.47128 180 7.01573e-015 179.043 178.53 9.09479 179.596 -3.63578e-006 -3.53707e-006 0.0586314 -18.5009 67.376 19.0277 8.17313 25.8869 -3.50544 -175.477 10.6782 0.391443 4.54188e-006 -4.6773e-006 -0.988417 -3.57381 -14.4626 0.0464053 5.39004e-007 -2.5754e-006 -0.200167 19.4318 68.9424 -20.3492 -8.13719 25.2324 3.48834 
49.4284 100.313 7.07093 0.190646 2.50857 6.48748 -0.0856671 -2.0543 0.267824 -0.164205 -0.106151 0.543647 -0.170768 1.53888 0.54653 -26.6082 17.3914 2.88931 20.2167 1.713 -2.73526 31.9472 2.43042 6.31487 119.965 53.5474 -26.3247 3.53113e-031 3.18055e-015 -6.36111e-015 11.4033 61.3873 -8.07711 -7.09662e-006 5.19571e-006 -3 8.02898 -4.95144 0.697692 -65.7174 -14.3964 8.65605 -88.8315 28.9968 44.0703 2.38542e-015 -1.59028e-015 1.27222e-014 139.306 71.3995 -118.872 4.61978e-006 1.88776e-006 3.00058 -8.02893 -4.95144 -0.697707 179.385 7.02521 -1.46171 180 7.01573e-015 179.044 178.532 9.12316 179.594 -3.63578e-006 -3.53707e-006 0.0570157 -18.4518 67.3464 19.0047 8.17439 25.9049 -3.50731 -175.494 10.5829 0.383903 4.54188e-006 -4.6773e-006 -0.989627 -3.59899 -14.4293 0.0426295 5.39004e-007 -2.5754e-006 -0.200143 19.4502 68.9633 -20.3682 -8.13717 25.2318 3.48917 
49.4625 100.322 7.09465 0.204176 2.50634 6.19046 -0.0809451 -2.08007 0.259049 -0.154897 -0.157646 0.525615 -0.161239 1.48739 0.528331 -26.101 17.4609 2.96391 19.6897 1.62923 -2.56199 32.3842 2.40239 6.19225 120.103 53.096 -26.9912 3.18055e-015 0 1.11319e-014 11.3937 61.9559 -8.13824 -7.09662e-006 5.19571e-006 -3 8.02898 -4.95144 0.697692 -65.5119 -14.3664 8.64912 -88.8466 29.1583 43.7184 -3.97569e-015 0 -0 139.322 71.5513 -119.076 4.61978e-006 1.88776e-006 3.00058 -8.02893 -4.95144 -0.697707 179.359 7.06701 -1.44991 180 7.01574e-015 179.045 178.533 9.14749 179.593 -3.63578e-006 -3.53707e-006 0.055342 -18.4009 67.314 18.9795 8.17573 25.9238 -3.50993 -175.513 10.4827 0.378539 4.54188e-006 -4.6773e-006 -0.990852 -3.6236 -14.3913 0.0389017 5.39004e-007 -2.5754e-006 -0.200108 19.4686 68.9842 -20.3871 -8.13713 25.2309 3.49039 
49.5065 100.323 7.10464 0.218844 2.50332 5.88952 -0.0764662 -2.10544 0.250738 -0.14607 -0.208351 0.508538 -0.152203 1.43669 0.511098 -25.5859 17.5334 3.03751 19.156 1.54593 -2.38946 32.8245 2.37125 6.06621 120.225 52.6393 -27.6505 -3.18055e-015 6.36111e-015 -6.36111e-015 11.3729 62.523 -8.19324 -7.09662e-006 5.19571e-006 -3 8.02898 -4.95144 0.697692 -65.3058 -14.3348 8.64149 -88.8582 29.3211 43.3614 -2.14687e-014 4.77083e-015 -0 139.337 71.7065 -119.282 4.61978e-006 1.88776e-006 3.00057 -8.02893 -4.95144 -0.697707 179.332 7.10704 -1.43629 180 7.01574e-015 179.047 178.532 9.16786 179.592 -3.63578e-006 -3.53707e-006 0.0536112 -18.3484 67.2789 18.9525 8.17711 25.9432 -3.51307 -175.535 10.3785 0.375089 4.54188e-006 -4.6773e-006 -0.992088 -3.64767 -14.3494 0.0352201 5.39004e-007 -2.5754e-006 -0.200062 19.4871 69.0053 -20.4062 -8.13707 25.2298 3.49189 
